#N canvas 824 82 668 452 10;
#X msg 499 59 \; pd dsp 1 \;;
#X msg 488 121 \; pd dps 0 \;;
#X obj 255 407 dac~;
#N canvas 0 23 450 300 (subpatch) 0;
#X obj 110 85 / 200;
#X obj 41 160 *~;
#X obj 110 135 line;
#X msg 110 110 \$1 3000;
#X obj 40 14 inlet;
#X obj 41 249 outlet~;
#X obj 40 89 osc~ 50;
#X connect 0 0 3 0;
#X connect 1 0 5 0;
#X connect 2 0 1 1;
#X connect 3 0 2 0;
#X connect 4 0 0 0;
#X connect 6 0 1 0;
#X restore 33 266 pd 1;
#N canvas 0 321 450 300 (subpatch) 0;
#X obj 110 85 / 200;
#X obj 41 160 *~;
#X obj 110 135 line;
#X msg 110 110 \$1 3000;
#X obj 40 89 osc~ 100;
#X obj 40 14 inlet;
#X obj 41 249 outlet~;
#X connect 0 0 3 0;
#X connect 1 0 6 0;
#X connect 2 0 1 1;
#X connect 3 0 2 0;
#X connect 4 0 1 0;
#X connect 5 0 0 0;
#X restore 70 267 pd 2;
#N canvas 786 357 450 300 (subpatch) 0;
#X obj 110 85 / 200;
#X obj 41 160 *~;
#X obj 110 135 line;
#X msg 110 110 \$1 3000;
#X obj 40 14 inlet;
#X obj 41 249 outlet~;
#X obj 40 89 osc~ 150;
#X connect 0 0 3 0;
#X connect 1 0 5 0;
#X connect 2 0 1 1;
#X connect 3 0 2 0;
#X connect 4 0 0 0;
#X connect 6 0 1 0;
#X restore 103 267 pd 3;
#N canvas 0 23 450 300 (subpatch) 0;
#X obj 110 85 / 200;
#X obj 41 160 *~;
#X obj 110 135 line;
#X msg 110 110 \$1 3000;
#X obj 40 14 inlet;
#X obj 41 249 outlet~;
#X obj 40 89 osc~ 200;
#X connect 0 0 3 0;
#X connect 1 0 5 0;
#X connect 2 0 1 1;
#X connect 3 0 2 0;
#X connect 4 0 0 0;
#X connect 6 0 1 0;
#X restore 140 267 pd 4;
#N canvas 86 454 450 300 (subpatch) 0;
#X obj 110 85 / 200;
#X obj 41 160 *~;
#X obj 110 135 line;
#X msg 110 110 \$1 3000;
#X obj 40 14 inlet;
#X obj 41 249 outlet~;
#X obj 40 89 osc~ 250;
#X connect 0 0 3 0;
#X connect 1 0 5 0;
#X connect 2 0 1 1;
#X connect 3 0 2 0;
#X connect 4 0 0 0;
#X connect 6 0 1 0;
#X restore 177 268 pd 5;
#N canvas 786 402 450 300 (subpatch) 0;
#X obj 110 85 / 200;
#X obj 41 160 *~;
#X obj 110 135 line;
#X msg 110 110 \$1 3000;
#X obj 40 14 inlet;
#X obj 41 249 outlet~;
#X obj 40 89 osc~ 300;
#X connect 0 0 3 0;
#X connect 1 0 5 0;
#X connect 2 0 1 1;
#X connect 3 0 2 0;
#X connect 4 0 0 0;
#X connect 6 0 1 0;
#X restore 210 268 pd 6;
#X obj 166 189 unpack f f f f f f f f f f f f f f f f f f f f f f f
f f f f;
#N canvas 0 23 450 300 (subpatch) 0;
#X obj 110 85 / 200;
#X obj 41 160 *~;
#X obj 110 135 line;
#X msg 110 110 \$1 3000;
#X obj 40 14 inlet;
#X obj 41 249 outlet~;
#X obj 40 89 osc~ 350;
#X connect 0 0 3 0;
#X connect 1 0 5 0;
#X connect 2 0 1 1;
#X connect 3 0 2 0;
#X connect 4 0 0 0;
#X connect 6 0 1 0;
#X restore 246 268 pd 7;
#N canvas 0 321 450 300 (subpatch) 0;
#X obj 110 85 / 200;
#X obj 41 160 *~;
#X obj 110 135 line;
#X msg 110 110 \$1 3000;
#X obj 40 14 inlet;
#X obj 41 249 outlet~;
#X obj 40 89 osc~ 400;
#X connect 0 0 3 0;
#X connect 1 0 5 0;
#X connect 2 0 1 1;
#X connect 3 0 2 0;
#X connect 4 0 0 0;
#X connect 6 0 1 0;
#X restore 283 269 pd 8;
#N canvas 786 357 450 300 (subpatch) 0;
#X obj 110 85 / 200;
#X obj 41 160 *~;
#X obj 110 135 line;
#X msg 110 110 \$1 3000;
#X obj 40 14 inlet;
#X obj 41 249 outlet~;
#X obj 40 89 osc~ 450;
#X connect 0 0 3 0;
#X connect 1 0 5 0;
#X connect 2 0 1 1;
#X connect 3 0 2 0;
#X connect 4 0 0 0;
#X connect 6 0 1 0;
#X restore 318 270 pd 9;
#N canvas 0 23 450 300 (subpatch) 0;
#X obj 110 85 / 200;
#X obj 41 160 *~;
#X obj 110 135 line;
#X msg 110 110 \$1 3000;
#X obj 40 14 inlet;
#X obj 41 249 outlet~;
#X obj 40 89 osc~ 500;
#X connect 0 0 3 0;
#X connect 1 0 5 0;
#X connect 2 0 1 1;
#X connect 3 0 2 0;
#X connect 4 0 0 0;
#X connect 6 0 1 0;
#X restore 353 269 pd 10;
#N canvas 86 454 450 300 (subpatch) 1;
#X obj 41 160 *~;
#X obj 110 135 line;
#X msg 110 110 \$1 3000;
#X obj 40 14 inlet;
#X obj 41 249 outlet~;
#X obj 40 89 osc~ 550;
#X obj 110 85 / 200;
#X connect 0 0 4 0;
#X connect 1 0 0 1;
#X connect 2 0 1 0;
#X connect 3 0 6 0;
#X connect 5 0 0 0;
#X connect 6 0 2 0;
#X restore 393 268 pd 11;
#N canvas 786 402 450 300 (subpatch) 0;
#X obj 110 85 / 200;
#X obj 41 160 *~;
#X obj 110 135 line;
#X obj 40 14 inlet;
#X obj 41 249 outlet~;
#X obj 40 89 osc~ 600;
#X msg 110 110 \$1 100;
#X connect 0 0 6 0;
#X connect 1 0 4 0;
#X connect 2 0 1 1;
#X connect 3 0 0 0;
#X connect 5 0 1 0;
#X connect 6 0 2 0;
#X restore 434 269 pd 12;
#X obj 255 92 oscparse;
#X obj 253 114 list trim;
#X obj 252 144 route amplitudes;
#X obj 261 67 netreceive -u -b 8001;
#X obj 34 177 print OSC1;
#X connect 3 0 2 0;
#X connect 4 0 2 1;
#X connect 5 0 2 0;
#X connect 6 0 2 1;
#X connect 7 0 2 0;
#X connect 8 0 2 1;
#X connect 9 0 3 0;
#X connect 9 0 20 0;
#X connect 9 1 4 0;
#X connect 9 2 5 0;
#X connect 9 3 6 0;
#X connect 9 4 7 0;
#X connect 9 5 8 0;
#X connect 9 6 10 0;
#X connect 9 7 11 0;
#X connect 9 8 12 0;
#X connect 9 9 13 0;
#X connect 9 10 14 0;
#X connect 9 11 15 0;
#X connect 10 0 2 0;
#X connect 11 0 2 1;
#X connect 12 0 2 0;
#X connect 13 0 2 1;
#X connect 14 0 2 0;
#X connect 15 0 2 1;
#X connect 16 0 17 0;
#X connect 17 0 18 0;
#X connect 18 0 9 0;
#X connect 19 0 16 0;
